<mxfile host="app.diagrams.net" modified="2021-10-26T03:10:35.825Z" agent="5.0 (Macintosh; Intel Mac OS X 10_15_7) AppleWebKit/537.36 (KHTML, like Gecko) Chrome/95.0.4638.54 Safari/537.36" etag="Jh_vAACh956KfjpHJCkK" version="15.5.9" type="github">
  <diagram id="XblzcxGRHUzjr9p-0842" name="Page-1">
    <mxGraphModel dx="1426" dy="653" grid="1" gridSize="10" guides="1" tooltips="1" connect="1" arrows="1" fold="1" page="1" pageScale="1" pageWidth="1654" pageHeight="1169" math="0" shadow="0">
      <root>
        <mxCell id="0" />
        <mxCell id="1" parent="0" />
        <mxCell id="oWt1c-0w8IS1T-IPn0zn-8" style="edgeStyle=orthogonalEdgeStyle;rounded=0;orthogonalLoop=1;jettySize=auto;html=1;entryX=0.5;entryY=0;entryDx=0;entryDy=0;" parent="1" source="oWt1c-0w8IS1T-IPn0zn-3" target="oWt1c-0w8IS1T-IPn0zn-5" edge="1">
          <mxGeometry relative="1" as="geometry" />
        </mxCell>
        <mxCell id="oWt1c-0w8IS1T-IPn0zn-10" value="has" style="edgeLabel;html=1;align=center;verticalAlign=middle;resizable=0;points=[];" parent="oWt1c-0w8IS1T-IPn0zn-8" vertex="1" connectable="0">
          <mxGeometry x="-0.1487" y="1" relative="1" as="geometry">
            <mxPoint as="offset" />
          </mxGeometry>
        </mxCell>
        <mxCell id="oWt1c-0w8IS1T-IPn0zn-9" style="edgeStyle=orthogonalEdgeStyle;rounded=0;orthogonalLoop=1;jettySize=auto;html=1;entryX=0.5;entryY=0;entryDx=0;entryDy=0;" parent="1" source="oWt1c-0w8IS1T-IPn0zn-3" target="oWt1c-0w8IS1T-IPn0zn-6" edge="1">
          <mxGeometry relative="1" as="geometry" />
        </mxCell>
        <mxCell id="oWt1c-0w8IS1T-IPn0zn-11" value="has" style="edgeLabel;html=1;align=center;verticalAlign=middle;resizable=0;points=[];" parent="oWt1c-0w8IS1T-IPn0zn-9" vertex="1" connectable="0">
          <mxGeometry x="-0.4971" relative="1" as="geometry">
            <mxPoint as="offset" />
          </mxGeometry>
        </mxCell>
        <mxCell id="gmGLZBwXflhIAo7ZA7hw-24" style="edgeStyle=orthogonalEdgeStyle;rounded=0;orthogonalLoop=1;jettySize=auto;html=1;entryX=0.5;entryY=0;entryDx=0;entryDy=0;" parent="1" source="oWt1c-0w8IS1T-IPn0zn-3" target="gmGLZBwXflhIAo7ZA7hw-3" edge="1">
          <mxGeometry relative="1" as="geometry">
            <Array as="points">
              <mxPoint x="595" y="150" />
              <mxPoint x="595" y="150" />
            </Array>
          </mxGeometry>
        </mxCell>
        <mxCell id="gmGLZBwXflhIAo7ZA7hw-25" value="should have" style="edgeLabel;html=1;align=center;verticalAlign=middle;resizable=0;points=[];" parent="gmGLZBwXflhIAo7ZA7hw-24" connectable="0" vertex="1">
          <mxGeometry x="-0.0148" y="1" relative="1" as="geometry">
            <mxPoint as="offset" />
          </mxGeometry>
        </mxCell>
        <mxCell id="nKUaNBxe58QQSBvqL-9a-3" style="edgeStyle=orthogonalEdgeStyle;rounded=0;orthogonalLoop=1;jettySize=auto;html=1;entryX=0.547;entryY=-0.017;entryDx=0;entryDy=0;entryPerimeter=0;" parent="1" source="oWt1c-0w8IS1T-IPn0zn-3" target="nKUaNBxe58QQSBvqL-9a-2" edge="1">
          <mxGeometry relative="1" as="geometry" />
        </mxCell>
        <mxCell id="oWt1c-0w8IS1T-IPn0zn-3" value="TDD" style="rounded=1;whiteSpace=wrap;html=1;" parent="1" vertex="1">
          <mxGeometry x="530" y="50" width="120" height="60" as="geometry" />
        </mxCell>
        <mxCell id="oWt1c-0w8IS1T-IPn0zn-4" value="What have we learnt about TDD?" style="text;html=1;strokeColor=none;fillColor=none;align=center;verticalAlign=middle;whiteSpace=wrap;rounded=0;" parent="1" vertex="1">
          <mxGeometry x="520" y="10" width="130" height="30" as="geometry" />
        </mxCell>
        <mxCell id="gmGLZBwXflhIAo7ZA7hw-17" style="edgeStyle=orthogonalEdgeStyle;rounded=0;orthogonalLoop=1;jettySize=auto;html=1;entryX=0;entryY=0.5;entryDx=0;entryDy=0;" parent="1" source="oWt1c-0w8IS1T-IPn0zn-5" target="gmGLZBwXflhIAo7ZA7hw-9" edge="1">
          <mxGeometry relative="1" as="geometry">
            <Array as="points">
              <mxPoint x="400" y="340" />
              <mxPoint x="350" y="340" />
              <mxPoint x="350" y="390" />
            </Array>
          </mxGeometry>
        </mxCell>
        <mxCell id="LTH0hcDIhlESSpkS51e7-1" value="major 5 steps" style="edgeLabel;html=1;align=center;verticalAlign=middle;resizable=0;points=[];" vertex="1" connectable="0" parent="gmGLZBwXflhIAo7ZA7hw-17">
          <mxGeometry x="-0.2667" y="-2" relative="1" as="geometry">
            <mxPoint as="offset" />
          </mxGeometry>
        </mxCell>
        <mxCell id="oWt1c-0w8IS1T-IPn0zn-5" value="TDD lifecycle" style="rounded=1;whiteSpace=wrap;html=1;" parent="1" vertex="1">
          <mxGeometry x="340" y="250" width="120" height="60" as="geometry" />
        </mxCell>
        <mxCell id="BmqrWhdEjeirKWVDw3WH-3" style="edgeStyle=orthogonalEdgeStyle;rounded=0;orthogonalLoop=1;jettySize=auto;html=1;entryX=-0.017;entryY=0.65;entryDx=0;entryDy=0;entryPerimeter=0;" parent="1" source="oWt1c-0w8IS1T-IPn0zn-6" target="BmqrWhdEjeirKWVDw3WH-2" edge="1">
          <mxGeometry relative="1" as="geometry">
            <Array as="points">
              <mxPoint x="1100" y="389" />
            </Array>
          </mxGeometry>
        </mxCell>
        <mxCell id="VqQ6hDxE0CcQu-wHCo0w-1" style="edgeStyle=orthogonalEdgeStyle;rounded=0;orthogonalLoop=1;jettySize=auto;html=1;entryX=0;entryY=0.5;entryDx=0;entryDy=0;" parent="1" source="oWt1c-0w8IS1T-IPn0zn-6" target="BmqrWhdEjeirKWVDw3WH-4" edge="1">
          <mxGeometry relative="1" as="geometry" />
        </mxCell>
        <mxCell id="VqQ6hDxE0CcQu-wHCo0w-3" style="edgeStyle=orthogonalEdgeStyle;rounded=0;orthogonalLoop=1;jettySize=auto;html=1;entryX=0;entryY=0.5;entryDx=0;entryDy=0;" parent="1" source="oWt1c-0w8IS1T-IPn0zn-6" target="VqQ6hDxE0CcQu-wHCo0w-2" edge="1">
          <mxGeometry relative="1" as="geometry" />
        </mxCell>
        <mxCell id="gmGLZBwXflhIAo7ZA7hw-33" value="includes" style="edgeLabel;html=1;align=center;verticalAlign=middle;resizable=0;points=[];" parent="VqQ6hDxE0CcQu-wHCo0w-3" connectable="0" vertex="1">
          <mxGeometry x="-0.8566" y="1" relative="1" as="geometry">
            <mxPoint as="offset" />
          </mxGeometry>
        </mxCell>
        <mxCell id="oWt1c-0w8IS1T-IPn0zn-6" value="Advantage" style="rounded=1;whiteSpace=wrap;html=1;" parent="1" vertex="1">
          <mxGeometry x="1040" y="250" width="120" height="60" as="geometry" />
        </mxCell>
        <mxCell id="gmGLZBwXflhIAo7ZA7hw-27" style="edgeStyle=orthogonalEdgeStyle;rounded=0;orthogonalLoop=1;jettySize=auto;html=1;entryX=0.5;entryY=0;entryDx=0;entryDy=0;" parent="1" source="gmGLZBwXflhIAo7ZA7hw-3" target="gmGLZBwXflhIAo7ZA7hw-26" edge="1">
          <mxGeometry relative="1" as="geometry">
            <Array as="points">
              <mxPoint x="560" y="335" />
              <mxPoint x="640" y="335" />
            </Array>
          </mxGeometry>
        </mxCell>
        <mxCell id="gmGLZBwXflhIAo7ZA7hw-30" style="edgeStyle=orthogonalEdgeStyle;rounded=0;orthogonalLoop=1;jettySize=auto;html=1;entryX=0;entryY=0.5;entryDx=0;entryDy=0;" parent="1" source="gmGLZBwXflhIAo7ZA7hw-3" target="gmGLZBwXflhIAo7ZA7hw-28" edge="1">
          <mxGeometry relative="1" as="geometry">
            <Array as="points">
              <mxPoint x="560" y="490" />
            </Array>
          </mxGeometry>
        </mxCell>
        <mxCell id="gmGLZBwXflhIAo7ZA7hw-31" style="edgeStyle=orthogonalEdgeStyle;rounded=0;orthogonalLoop=1;jettySize=auto;html=1;entryX=0;entryY=0.5;entryDx=0;entryDy=0;" parent="1" source="gmGLZBwXflhIAo7ZA7hw-3" target="gmGLZBwXflhIAo7ZA7hw-29" edge="1">
          <mxGeometry relative="1" as="geometry">
            <Array as="points">
              <mxPoint x="560" y="595" />
            </Array>
          </mxGeometry>
        </mxCell>
        <mxCell id="gmGLZBwXflhIAo7ZA7hw-32" value="includes, not limited to" style="edgeLabel;html=1;align=center;verticalAlign=middle;resizable=0;points=[];" parent="gmGLZBwXflhIAo7ZA7hw-31" connectable="0" vertex="1">
          <mxGeometry x="-0.9148" relative="1" as="geometry">
            <mxPoint as="offset" />
          </mxGeometry>
        </mxCell>
        <mxCell id="gmGLZBwXflhIAo7ZA7hw-35" style="edgeStyle=orthogonalEdgeStyle;rounded=0;orthogonalLoop=1;jettySize=auto;html=1;entryX=0;entryY=0.5;entryDx=0;entryDy=0;" parent="1" source="gmGLZBwXflhIAo7ZA7hw-3" target="gmGLZBwXflhIAo7ZA7hw-34" edge="1">
          <mxGeometry relative="1" as="geometry">
            <Array as="points">
              <mxPoint x="560" y="700" />
            </Array>
          </mxGeometry>
        </mxCell>
        <mxCell id="gmGLZBwXflhIAo7ZA7hw-3" value="Best Practice" style="rounded=1;whiteSpace=wrap;html=1;" parent="1" vertex="1">
          <mxGeometry x="520" y="250" width="150" height="60" as="geometry" />
        </mxCell>
        <mxCell id="gmGLZBwXflhIAo7ZA7hw-11" style="edgeStyle=orthogonalEdgeStyle;rounded=0;orthogonalLoop=1;jettySize=auto;html=1;entryX=0.5;entryY=0;entryDx=0;entryDy=0;" parent="1" source="gmGLZBwXflhIAo7ZA7hw-9" target="gmGLZBwXflhIAo7ZA7hw-10" edge="1">
          <mxGeometry relative="1" as="geometry" />
        </mxCell>
        <mxCell id="gmGLZBwXflhIAo7ZA7hw-12" value="commit" style="edgeLabel;html=1;align=center;verticalAlign=middle;resizable=0;points=[];" parent="gmGLZBwXflhIAo7ZA7hw-11" vertex="1" connectable="0">
          <mxGeometry x="-0.12" y="2" relative="1" as="geometry">
            <mxPoint as="offset" />
          </mxGeometry>
        </mxCell>
        <mxCell id="BmqrWhdEjeirKWVDw3WH-2" value="Save Time in Debugging" style="rounded=1;whiteSpace=wrap;html=1;" parent="1" vertex="1">
          <mxGeometry x="1140" y="350" width="120" height="60" as="geometry" />
        </mxCell>
        <mxCell id="gmGLZBwXflhIAo7ZA7hw-9" value="1. Write a test case&lt;br&gt;2. Run test, update test until get failure" style="rounded=1;whiteSpace=wrap;html=1;" parent="1" vertex="1">
          <mxGeometry x="370" y="360" width="120" height="60" as="geometry" />
        </mxCell>
        <mxCell id="BmqrWhdEjeirKWVDw3WH-4" value="Easy maintainance" style="rounded=1;whiteSpace=wrap;html=1;" parent="1" vertex="1">
          <mxGeometry x="1140" y="420" width="120" height="60" as="geometry" />
        </mxCell>
        <mxCell id="gmGLZBwXflhIAo7ZA7hw-15" value="" style="edgeStyle=orthogonalEdgeStyle;rounded=0;orthogonalLoop=1;jettySize=auto;html=1;" parent="1" source="gmGLZBwXflhIAo7ZA7hw-10" target="gmGLZBwXflhIAo7ZA7hw-13" edge="1">
          <mxGeometry relative="1" as="geometry" />
        </mxCell>
        <mxCell id="gmGLZBwXflhIAo7ZA7hw-16" value="commit" style="edgeLabel;html=1;align=center;verticalAlign=middle;resizable=0;points=[];" parent="gmGLZBwXflhIAo7ZA7hw-15" vertex="1" connectable="0">
          <mxGeometry x="-0.25" relative="1" as="geometry">
            <mxPoint as="offset" />
          </mxGeometry>
        </mxCell>
        <mxCell id="nKUaNBxe58QQSBvqL-9a-11" style="edgeStyle=orthogonalEdgeStyle;rounded=0;orthogonalLoop=1;jettySize=auto;html=1;entryX=1;entryY=0.5;entryDx=0;entryDy=0;" parent="1" source="gmGLZBwXflhIAo7ZA7hw-10" target="nKUaNBxe58QQSBvqL-9a-6" edge="1">
          <mxGeometry relative="1" as="geometry">
            <mxPoint x="710" y="750" as="targetPoint" />
            <Array as="points">
              <mxPoint x="270" y="500" />
              <mxPoint x="270" y="750" />
              <mxPoint x="1040" y="750" />
              <mxPoint x="1040" y="470" />
            </Array>
          </mxGeometry>
        </mxCell>
        <mxCell id="nKUaNBxe58QQSBvqL-9a-12" value="include" style="edgeLabel;html=1;align=center;verticalAlign=middle;resizable=0;points=[];" parent="nKUaNBxe58QQSBvqL-9a-11" vertex="1" connectable="0">
          <mxGeometry x="-0.0642" relative="1" as="geometry">
            <mxPoint as="offset" />
          </mxGeometry>
        </mxCell>
        <mxCell id="gmGLZBwXflhIAo7ZA7hw-10" value="3. Write implementation&lt;br&gt;4. Run test, update code until passed" style="rounded=1;whiteSpace=wrap;html=1;" parent="1" vertex="1">
          <mxGeometry x="370" y="470" width="120" height="60" as="geometry" />
        </mxCell>
        <mxCell id="gmGLZBwXflhIAo7ZA7hw-22" style="edgeStyle=orthogonalEdgeStyle;rounded=0;orthogonalLoop=1;jettySize=auto;html=1;entryX=1.007;entryY=0.431;entryDx=0;entryDy=0;entryPerimeter=0;" parent="1" source="gmGLZBwXflhIAo7ZA7hw-13" target="gmGLZBwXflhIAo7ZA7hw-9" edge="1">
          <mxGeometry relative="1" as="geometry">
            <mxPoint x="530" y="400" as="targetPoint" />
            <Array as="points">
              <mxPoint x="520" y="600" />
              <mxPoint x="520" y="386" />
            </Array>
          </mxGeometry>
        </mxCell>
        <mxCell id="gmGLZBwXflhIAo7ZA7hw-23" value="repeat" style="edgeLabel;html=1;align=center;verticalAlign=middle;resizable=0;points=[];" parent="gmGLZBwXflhIAo7ZA7hw-22" connectable="0" vertex="1">
          <mxGeometry x="-0.0168" y="1" relative="1" as="geometry">
            <mxPoint as="offset" />
          </mxGeometry>
        </mxCell>
        <mxCell id="gmGLZBwXflhIAo7ZA7hw-13" value="5. Refactor" style="rounded=1;whiteSpace=wrap;html=1;" parent="1" vertex="1">
          <mxGeometry x="370" y="570" width="120" height="60" as="geometry" />
        </mxCell>
        <mxCell id="VqQ6hDxE0CcQu-wHCo0w-2" value="Better code design" style="rounded=1;whiteSpace=wrap;html=1;" parent="1" vertex="1">
          <mxGeometry x="1140" y="505" width="120" height="60" as="geometry" />
        </mxCell>
        <mxCell id="nKUaNBxe58QQSBvqL-9a-5" style="edgeStyle=orthogonalEdgeStyle;rounded=0;orthogonalLoop=1;jettySize=auto;html=1;" parent="1" source="nKUaNBxe58QQSBvqL-9a-2" target="nKUaNBxe58QQSBvqL-9a-4" edge="1">
          <mxGeometry relative="1" as="geometry" />
        </mxCell>
        <mxCell id="gmGLZBwXflhIAo7ZA7hw-26" value="Baby steps,&lt;br&gt;many commit,&lt;br&gt;avoid complexity" style="rounded=1;whiteSpace=wrap;html=1;" parent="1" vertex="1">
          <mxGeometry x="580" y="360" width="120" height="60" as="geometry" />
        </mxCell>
        <mxCell id="nKUaNBxe58QQSBvqL-9a-2" value="Agile Methodology" style="rounded=1;whiteSpace=wrap;html=1;" parent="1" vertex="1">
          <mxGeometry x="760" y="250" width="150" height="60" as="geometry" />
        </mxCell>
        <mxCell id="nKUaNBxe58QQSBvqL-9a-8" style="edgeStyle=orthogonalEdgeStyle;rounded=0;orthogonalLoop=1;jettySize=auto;html=1;entryX=0.5;entryY=0;entryDx=0;entryDy=0;" parent="1" source="nKUaNBxe58QQSBvqL-9a-4" target="nKUaNBxe58QQSBvqL-9a-6" edge="1">
          <mxGeometry relative="1" as="geometry" />
        </mxCell>
        <mxCell id="gmGLZBwXflhIAo7ZA7hw-28" value="Meaningful test names" style="rounded=1;whiteSpace=wrap;html=1;" parent="1" vertex="1">
          <mxGeometry x="580" y="460" width="120" height="60" as="geometry" />
        </mxCell>
        <mxCell id="nKUaNBxe58QQSBvqL-9a-4" value="Extreme Programming" style="rounded=1;whiteSpace=wrap;html=1;" parent="1" vertex="1">
          <mxGeometry x="760" y="340" width="150" height="60" as="geometry" />
        </mxCell>
        <mxCell id="gmGLZBwXflhIAo7ZA7hw-29" value="Based on GWT structure" style="rounded=1;whiteSpace=wrap;html=1;" parent="1" vertex="1">
          <mxGeometry x="580" y="565" width="120" height="60" as="geometry" />
        </mxCell>
        <mxCell id="nKUaNBxe58QQSBvqL-9a-10" style="edgeStyle=orthogonalEdgeStyle;rounded=0;orthogonalLoop=1;jettySize=auto;html=1;entryX=0.375;entryY=0;entryDx=0;entryDy=0;entryPerimeter=0;" parent="1" source="nKUaNBxe58QQSBvqL-9a-6" target="nKUaNBxe58QQSBvqL-9a-7" edge="1">
          <mxGeometry relative="1" as="geometry" />
        </mxCell>
        <mxCell id="gmGLZBwXflhIAo7ZA7hw-34" value="Focus on requirement - what to achieve" style="rounded=1;whiteSpace=wrap;html=1;" parent="1" vertex="1">
          <mxGeometry x="580" y="670" width="120" height="60" as="geometry" />
        </mxCell>
        <mxCell id="nKUaNBxe58QQSBvqL-9a-6" value="Unit Test for ckeck code" style="rounded=1;whiteSpace=wrap;html=1;" parent="1" vertex="1">
          <mxGeometry x="760" y="440" width="150" height="60" as="geometry" />
        </mxCell>
        <mxCell id="nKUaNBxe58QQSBvqL-9a-7" value="TDD for develop verification&amp;nbsp;" style="rounded=1;whiteSpace=wrap;html=1;" parent="1" vertex="1">
          <mxGeometry x="760" y="550" width="200" height="60" as="geometry" />
        </mxCell>
      </root>
    </mxGraphModel>
  </diagram>
</mxfile>
